<svg viewBox="0 0 329 73" fill="none" xmlns="http://www.w3.org/2000/svg" class="w-[160px] sm:w-[270px] 4xl:w-[300px] h-auto" data-fc-idx="0">
    <path d="M0.0022333 52.9626V45.5965H14.1383V54.8538C14.1383 58.835 15.632 60.7262 18.0211 60.7262C19.9124 60.7262 21.3056 58.9355 21.3056 56.2471C21.3056 52.1655 19.2157 47.1886 14.8349 42.2094L10.4541 37.2324C2.4896 28.1738 0.598398 22.9959 0.598398 15.8285C0.598398 6.37249 7.46657 0 17.7197 0C27.9729 0 34.4436 6.27201 34.4436 16.8243C34.4436 17.9184 33.9457 23.4938 33.9457 23.4938H20.4058L20.5063 17.9184C20.6068 13.3389 19.2112 11.9456 17.5188 11.9456C15.8263 11.9456 14.7322 13.4394 14.7322 16.226C14.7322 20.705 18.6151 25.5837 23.8912 31.5565C31.3578 40.019 35.4394 45.6926 35.4394 54.0545C35.4394 65.203 29.2679 72.6696 17.7197 72.6696C6.17153 72.6696 0 65.7009 0 52.9582L0.0022333 52.9626Z" fill="currentColor" style="fill: rgb(0, 0, 0) !important;"/>
    <path d="M40.6172 1.49609H71.6758V14.4376H54.7532V29.0715H67.0963V42.013H54.7532V58.2389H71.7763V71.1804H40.6172V1.49609Z" fill="currentColor" style="fill: rgb(0, 0, 0) !important;"/>
    <path d="M74.5608 52.9626V45.5965H88.6969V54.8538C88.6969 58.835 90.1906 60.7262 92.5797 60.7262C94.4709 60.7262 95.8642 58.9355 95.8642 56.2471C95.8642 52.1655 93.7743 47.1886 89.3935 42.2094L85.0127 37.2324C77.0482 28.1738 75.157 22.9959 75.157 15.8285C75.157 6.37249 82.0252 0 92.2783 0C102.531 0 109.002 6.27201 109.002 16.8243C109.002 17.9184 108.504 23.4938 108.504 23.4938H94.9644L95.0649 17.9184C95.1654 13.3389 93.7698 11.9456 92.0774 11.9456C90.3849 11.9456 89.2908 13.4394 89.2908 16.226C89.2908 20.705 93.1737 25.5837 98.4498 31.5565C105.916 40.019 109.998 45.6926 109.998 54.0545C109.998 65.203 103.826 72.6696 92.2783 72.6696C80.7301 72.6696 74.5586 65.7009 74.5586 52.9582L74.5608 52.9626Z" fill="currentColor" style="fill: rgb(0, 0, 0) !important;"/>
    <path d="M113.686 52.9626V45.5965H127.822V54.8538C127.822 58.835 129.316 60.7262 131.705 60.7262C133.596 60.7262 134.989 58.9355 134.989 56.2471C134.989 52.1655 132.899 47.1886 128.518 42.2094L124.138 37.2324C116.173 28.1738 114.282 22.9959 114.282 15.8285C114.282 6.37249 121.15 0 131.403 0C141.656 0 148.127 6.27201 148.127 16.8243C148.127 17.9184 147.629 23.4938 147.629 23.4938H134.089L134.19 17.9184C134.29 13.3389 132.895 11.9456 131.202 11.9456C129.51 11.9456 128.416 13.4394 128.416 16.226C128.416 20.705 132.299 25.5837 137.575 31.5565C145.041 40.019 149.123 45.6926 149.123 54.0545C149.123 65.203 142.951 72.6696 131.403 72.6696C119.855 72.6696 113.684 65.7009 113.684 52.9582L113.686 52.9626Z" fill="currentColor" style="fill: rgb(0, 0, 0) !important;"/>
    <path d="M154.301 1.49609H168.437V71.1804H154.301V1.49609Z" fill="currentColor" style="fill: rgb(0, 0, 0) !important;"/>
    <path d="M174.113 34.7447C174.113 7.76772 178.094 0.00195312 192.23 0.00195312C206.366 0.00195312 210.348 7.76772 210.348 34.7447C210.348 65.6046 206.364 72.6738 192.23 72.6738C178.097 72.6738 174.113 65.6069 174.113 34.7447ZM192.23 60.7281C195.218 60.7281 195.814 57.7406 195.814 42.9079V28.8724C195.814 16.4289 195.218 11.9498 192.23 11.9498C189.243 11.9498 188.647 16.4289 188.647 28.8724V42.9079C188.647 57.7406 189.243 60.7281 192.23 60.7281Z" fill="currentColor" style="fill: rgb(0, 0, 0) !important;"/>
    <path d="M216.02 1.49609H230.156L239.315 32.8539V1.49609H252.256V71.1804H240.31L228.961 32.8539V71.1804H216.02V1.49609Z" fill="currentColor" style="fill: rgb(0, 0, 0) !important;"/>
    <path d="M292.665 0.00195312C302.635 0.00195312 311.182 3.54322 318.309 10.628C325.436 17.7105 329 26.2823 329 36.339C329 46.3956 325.436 54.858 318.309 61.983C311.18 69.1124 302.633 72.6738 292.665 72.6738C282.698 72.6738 274.039 69.1124 266.954 61.983C259.872 54.8558 256.328 46.3085 256.328 36.339C256.328 26.3694 259.869 17.7127 266.954 10.628C274.037 3.54545 282.606 0.00195312 292.665 0.00195312ZM292.665 65.1871C300.636 65.1871 307.438 62.3737 313.069 56.7425C318.698 51.1136 321.513 44.3124 321.513 36.339C321.513 28.3655 318.698 21.5666 313.069 15.9354C307.438 10.3064 300.636 7.49086 292.665 7.49086C284.694 7.49086 277.891 10.3087 272.262 15.9354C266.63 21.5666 263.817 28.3678 263.817 36.339C263.817 44.3102 266.63 51.1136 272.262 56.7425C277.891 62.3737 284.692 65.1871 292.665 65.1871Z" fill="currentColor" style="fill: rgb(0, 0, 0) !important;"/>
    <path d="M283.631 56.8139C281.173 55.5545 279.266 53.7571 277.906 51.4193C276.546 49.0816 275.749 46.3553 275.508 43.2383H283.66C283.78 45.1563 284.229 46.7751 285.009 48.0924C285.788 49.4098 286.826 50.3989 288.126 51.0599C289.423 51.7185 290.952 52.049 292.71 52.049C294.107 52.049 295.396 51.8302 296.575 51.3903C297.753 50.9504 298.691 50.2806 299.392 49.383C300.091 48.4832 300.442 47.4159 300.442 46.1767C300.442 44.6583 299.901 43.4705 298.823 42.6108C297.745 41.7512 296.005 41.0434 293.609 40.483L287.976 39.1634C284.779 38.4042 282.153 37.0154 280.094 34.9969C278.035 32.9807 277.008 30.3928 277.008 27.2356C277.008 24.7996 277.687 22.6203 279.047 20.7023C280.404 18.7843 282.253 17.2861 284.591 16.2077C286.929 15.1292 289.476 14.5889 292.234 14.5889C295.271 14.5889 297.937 15.1694 300.236 16.326C302.534 17.4848 304.343 19.1036 305.66 21.1802C306.98 23.2589 307.719 25.6548 307.877 28.3721H299.725C299.645 27.0525 299.296 25.8557 298.676 24.775C298.055 23.6966 297.157 22.8369 295.978 22.1983C294.799 21.5598 293.411 21.2382 291.812 21.2382C290.573 21.2382 289.423 21.4481 288.367 21.8679C287.308 22.2877 286.458 22.8972 285.819 23.6966C285.18 24.4959 284.861 25.4337 284.861 26.5144C284.861 28.0327 285.41 29.1715 286.509 29.9306C287.608 30.6898 289.356 31.3686 291.754 31.9692L296.968 33.2285C300.404 34.068 303.15 35.4569 305.209 37.395C307.268 39.3331 308.295 41.941 308.295 45.2166C308.295 47.7731 307.625 50.0819 306.287 52.1383C304.948 54.197 303.07 55.8046 300.654 56.9635C298.236 58.1223 295.469 58.7006 292.352 58.7006C288.996 58.7006 286.089 58.0709 283.631 56.8116V56.8139Z" fill="currentColor" style="fill: rgb(0, 0, 0) !important;"/>
  </svg>